<?xml version="1.0" encoding="utf-8"?>
<!-- Generator: Adobe Illustrator 19.0.0, SVG Export Plug-In . SVG Version: 6.00 Build 0)  -->
<svg version="1.1" id="Layer_1" xmlns="http://www.w3.org/2000/svg" xmlns:xlink="http://www.w3.org/1999/xlink" x="0px" y="0px"
	 viewBox="-2206 2464 585.7 74" style="enable-background:new -2206 2464 585.7 74;" xml:space="preserve">
<style type="text/css">
	.st0{fill:url(#XMLID_2_);}
	.st1{fill:#FFFFFF;}
</style>
<g id="XMLID_3_">
	<g id="XMLID_19_">
		
			<linearGradient id="XMLID_2_" gradientUnits="userSpaceOnUse" x1="-1913.2" y1="6574" x2="-1913.2" y2="6500" gradientTransform="matrix(1 0 0 1 0 -4036)">
			<stop  offset="0" style="stop-color:#0098EB"/>
			<stop  offset="0.3582" style="stop-color:#0063CC"/>
			<stop  offset="0.6998" style="stop-color:#0036B1"/>
			<stop  offset="0.8718" style="stop-color:#0025A7"/>
			<stop  offset="1" style="stop-color:#05487D;stop-opacity:0.2"/>
		</linearGradient>
		<path id="XMLID_21_" class="st0" d="M-1652.9,2532.6c-1.5,2.9-5.4,5.4-8.7,5.4h-503.2c-3.3,0-7.2-2.4-8.7-5.4l-32-63.2
			c-1.5-3,0-5.4,3.3-5.4h578c3.3,0,4.8,2.4,3.3,5.4L-1652.9,2532.6z"/>
	</g>
	<g id="XMLID_5_">
		<path id="XMLID_18_" class="st1" d="M-2046,2492.9c0-2.5,1.9-4.5,4.3-4.5h7.8c2.4,0,4.3,2.1,4.3,4.5v3.2h-2.6v-2.7
			c0-1.3-1-2.4-2.2-2.4h-6.7c-1.2,0-2.2,1.1-2.2,2.4v14.7c0,1.3,1,2.4,2.2,2.4h6.7c1.2,0,2.2-1.1,2.2-2.4v-4.1h-5.1v-2.3h7.7v6.9
			c0,2.5-1.9,4.5-4.3,4.5h-7.8c-2.3,0-4.3-2.1-4.3-4.5V2492.9L-2046,2492.9z"/>
		<path id="XMLID_17_" class="st1" d="M-2024.5,2488.8h14.1v2.5h-11.4v8.1h8.8v2.4h-8.8v8.2h11.7v2.7h-14.3L-2024.5,2488.8
			L-2024.5,2488.8L-2024.5,2488.8z"/>
		<path id="XMLID_16_" class="st1" d="M-2005.9,2488.8h2l12.6,13.5v-13.5h2.7v23.9h-2.7v-6.7l-11.9-12.9v19.6h-2.7V2488.8
			L-2005.9,2488.8z"/>
		<path id="XMLID_15_" class="st1" d="M-1983.2,2488.8h14.1v2.5h-11.4v8.1h8.8v2.4h-8.8v8.2h11.7v2.7h-14.3L-1983.2,2488.8
			L-1983.2,2488.8L-1983.2,2488.8z"/>
		<path id="XMLID_14_" class="st1" d="M-1964.5,2488.8h10.3c2.4,0,4.3,2.1,4.3,4.5v5.7c0,2.3-1.6,4.2-3.7,4.4h-0.6l6.1,9.3h-3.1
			l-6-9.2h-4.7v9.2h-2.7L-1964.5,2488.8L-1964.5,2488.8z M-1955,2501.1c1.4,0,2.4-1.2,2.4-2.6v-4.6c0-1.4-1.1-2.6-2.4-2.6h-6.9v9.9
			L-1955,2501.1L-1955,2501.1z"/>
		<path id="XMLID_13_" class="st1" d="M-1938.2,2488.8h2.5l8.8,23.9h-2.7l-2.6-7.1h-9.4l-2.6,7.1h-2.7L-1938.2,2488.8z
			 M-1933.1,2503.2l-3.9-10.8l-3.9,10.8H-1933.1z"/>
		<path id="XMLID_12_" class="st1" d="M-1928.5,2488.8h17.9v2.5h-7.6v21.4h-2.6v-21.4h-7.6L-1928.5,2488.8L-1928.5,2488.8z"/>
		<path id="XMLID_11_" class="st1" d="M-1907.5,2488.8h14.1v2.5h-11.4v8.1h8.8v2.4h-8.8v8.2h11.7v2.7h-14.3L-1907.5,2488.8
			L-1907.5,2488.8L-1907.5,2488.8z"/>
		<path id="XMLID_10_" class="st1" d="M-1881.9,2488.8h1.9l8.5,19.3l8.6-19.3h1.9v23.9h-2.5v-16.3l-7.2,16.3h-1.4l-7.2-16.3v16.3
			h-2.6V2488.8L-1881.9,2488.8z"/>
		<path id="XMLID_9_" class="st1" d="M-1849,2488.8h2.5l8.8,23.9h-2.7l-2.6-7.1h-9.4l-2.6,7.1h-2.7L-1849,2488.8z M-1843.9,2503.2
			l-3.9-10.8l-3.9,10.8H-1843.9z"/>
		<path id="XMLID_8_" class="st1" d="M-1839.3,2488.8h17.9v2.5h-7.7v21.4h-2.6v-21.4h-7.6V2488.8L-1839.3,2488.8z"/>
		<path id="XMLID_7_" class="st1" d="M-1818.7,2492.9c0-2.5,1.9-4.5,4.2-4.5h7.9c2.4,0,4.3,2.1,4.3,4.5v3.2h-2.6v-2.7
			c0-1.3-1-2.4-2.2-2.4h-6.7c-1.3,0-2.2,1.1-2.2,2.4v14.7c0,1.3,1,2.4,2.2,2.4h6.7c1.3,0,2.2-1.1,2.2-2.4v-2.6h2.6v3.1
			c0,2.5-1.9,4.5-4.3,4.5h-7.9c-2.3,0-4.2-2.1-4.2-4.5V2492.9z"/>
		<path id="XMLID_6_" class="st1" d="M-1797.5,2488.8h2.7v10.5h11.3v-10.5h2.7v23.9h-2.7v-10.8h-11.3v10.8h-2.7V2488.8z"/>
	</g>
</g>
</svg>
