<?xml version="1.0" encoding="utf-8"?>
<!-- Generator: Adobe Illustrator 19.0.0, SVG Export Plug-In . SVG Version: 6.00 Build 0)  -->
<svg version="1.1" id="Layer_1" xmlns="http://www.w3.org/2000/svg" xmlns:xlink="http://www.w3.org/1999/xlink" x="0px" y="0px"
	 viewBox="0 0 232.8 232.8" style="enable-background:new 0 0 232.8 232.8;" xml:space="preserve">
<style type="text/css">
	.st0{fill:#FFFFFF;}
</style>
<g id="XMLID_1_">
	<path id="XMLID_32_" class="st0" d="M232.8,116.3c0,64.3-52.4,116.6-116.6,116.5C52.1,232.6-0.1,180.3,0,116.5
		C0.1,52.1,52.3-0.1,116.6,0C180.6,0.1,232.8,52.3,232.8,116.3z M214.1,116.4c-0.1-54-43.7-97.5-97.8-97.7
		c-53.6-0.1-97.7,43.9-97.6,97.6c0.1,54.1,43.6,97.7,97.7,97.8C170.2,214.2,214.1,170.2,214.1,116.4z"/>
	<path id="XMLID_28_" class="st0" d="M166.1,174.5c-0.4-6.2-0.3-13.1-1.5-19.7c-2.4-13.6-10.2-23.4-22.8-29.3
		c-15.4-7.2-31.8-7.9-48.7-6.7c0,8.4,0,16.6,0,25.5c-13.5-14.3-26.4-28-39.5-41.9c13.1-13.8,26-27.5,39.4-41.7
		c0.1,1.4,0.1,2.3,0.1,3.2c0,6.6,0.1,13.2,0,19.7c0,2,0.7,2.5,2.5,2.8c18.4,3.3,35.8,9.2,51,20.2c12.1,8.7,20.7,19.9,23.5,34.9
		C172.2,153.2,170,164.4,166.1,174.5z"/>
</g>
</svg>
