<?xml version="1.0" encoding="utf-8"?>
<!-- Generator: Adobe Illustrator 19.0.0, SVG Export Plug-In . SVG Version: 6.00 Build 0)  -->
<svg version="1.1" id="Layer_1" xmlns="http://www.w3.org/2000/svg" xmlns:xlink="http://www.w3.org/1999/xlink" x="0px" y="0px"
	 viewBox="0 0 461.7 159.7" style="enable-background:new 0 0 461.7 159.7;" xml:space="preserve">
<style type="text/css">
	.st0{fill:#FFFFFF;}
	.st1{fill:url(#XMLID_146_);}
	.st2{fill:url(#XMLID_147_);}
	.st3{fill:url(#XMLID_148_);}
</style>
<path id="Rocket_League" class="st0" d="M355,103.6h-17V52.7h17v17l10.4-17h19l-17,25.6l17,25.6h-19l-10.4-17V103.6z M452.2,65.9
	h9.5V52.7h-35.9v13.2h9.5v37.7h17V65.9z M422,90.3h-19v-5.8h15V71.6h-15v-5.8h19V52.7h-35.9v50.9H422V90.3z M233.9,145.3h-19v-38
	h-17v50.9h35.9V145.3z M273.6,145.3h-19v-5.8h15v-13.2h-15v-5.8h19v-13.2h-35.9v50.9h35.9L273.6,145.3L273.6,145.3z M461.7,145.3
	h-19v-5.8h15v-13.2h-15v-5.8h19v-13.2h-35.9v50.9h35.9V145.3z M296.3,78.3c0,14.7-11.8,26.5-26.5,26.5c-14.7,0-26.5-11.8-26.5-26.5
	s11.8-26.5,26.5-26.5C284.5,51.8,296.3,63.6,296.3,78.3z M279.4,78.3c0-5.2-4.3-9.5-9.5-9.5c-5.2,0-9.5,4.3-9.5,9.5
	c0,5.2,4.3,9.5,9.5,9.5C275,87.8,279.4,83.4,279.4,78.3z M405,136.6c0,3.2-2.6,5.8-5.8,5.8c-3.2,0-5.8-2.6-5.8-5.8v-29.3h-17v29.3
	c0,12.4,10.1,22.7,22.7,22.7c12.4,0,22.7-10.1,22.7-22.7v-29.3h-17V136.6z M334.3,83.7c-1.7,2.3-6.3,3.7-9.5,3.7
	c-5.2,0-9.5-4.3-9.5-9.5s4.3-9.5,9.5-9.5c3.2,0,7.8,1.4,9.5,3.7V52.7c-2.3-0.6-6.9-1.2-9.5-1.2c-14.7,0-26.5,11.8-26.5,26.5
	s11.8,26.5,26.5,26.5c2.6,0,6.9-0.3,9.5-1.2V83.7z M241.4,68.8c0,7.2-3.7,13.5-10.1,14.7l12.9,20.1h-19l-10.4-17v17h-17V52.7h26.5
	C233.9,52.7,241.4,59.3,241.4,68.8L241.4,68.8z M224.4,71.6c0-3.2-2.6-5.8-5.8-5.8h-3.7v11.2h3.7C221.8,77.1,224.4,74.8,224.4,71.6z
	 M307.5,150.7h-13.2l-1.7,7.5h-17l17-50.9h17l17,50.9h-17L307.5,150.7L307.5,150.7z M304.4,137.5l-3.5-14.4l-3.5,14.4H304.4z
	 M373.4,128.3H349v12.4h7.8c-0.9,1.7-2.6,4.6-7.8,4.6c-5.8,0-10.4-4.9-10.4-11.2c0-6.9,5.2-10.9,10.4-11.2c5.8-0.3,8.1,2,9.8,3.7
	l11.8-11.2c-5.8-5.8-12.4-8.6-21.6-8.6c-14.7,0-26.5,11.8-26.5,26.5c0,14.7,11.8,26.5,26.5,26.5c15.2,0,24.4-10.9,24.4-24.4V128.3
	L373.4,128.3z"/>
<g id="Shield">
	<path id="path4" class="st0" d="M79.2,57c0,0,3.7,0.3,6.9,4.3l-1.7,0.3l-0.9-0.3C83.5,61.3,81,58.2,79.2,57z M73.5,74.8l-1.7-4.3
		h-0.6L68.3,74C70.3,75.7,73.5,74.8,73.5,74.8z M99.9,49.5l-1.4,0.6l1.7,3.2l5.8,2C103.7,50.4,99.9,49.5,99.9,49.5z M83.5,55.6
		c1.7,2,3.5,4.9,3.5,4.9c2.9-2.9,8.9-4,16.7-3.7C92.7,54.4,83.5,55.6,83.5,55.6z M72.9,51.3c0,0,3.2,0,7.5,0.9
		c-2.9-2-7.5-3.2-7.5-3.2V51.3z M99.4,67.1l-4.9,4.3l3.7,1.2l3.7-4l-2-0.9L99.4,67.1L99.4,67.1z M66.9,44.4c0,0,2,1.2,2.3,1.2
		s4.3,1.4,6,2c1.4,0.6,2.3,0,2.6,0s5.2-2.9,5.2-2.9c-4.3-1.7-8.3-2.9-8.3-2.9C74.3,41.8,66.9,44.4,66.9,44.4z M96.2,46.9
		c-0.3-0.6-0.9-0.6-4.3-1.2c-3.2-0.3-6-0.6-6.6-0.6c-0.6,0-0.9,0.3-0.9,0.3s-1.7,1.2-3.2,2c-1.4,0.9-1.7,1.2-2,1.7
		c-0.3,0.3,0.6,1.4,0.6,1.4l2.3,2.9c0.3,0,1.2,0.6,1.2,0.6s4.6-0.3,7.5-0.6h7.5c0.3,0,0-1.2-0.6-2.6C97.1,49.8,96.2,46.9,96.2,46.9z
		 M68.9,50.1c0,0,0.3,0,0.9,0.3c0.6,0,0.9-0.6,0.9-1.2c0-0.9-0.9-1.2-0.9-1.2h-0.6l-0.9,0.3l-0.3,2h0.3L68.9,50.1
		c-0.3-0.6-0.3-0.9-0.3-1.4c0-0.3,0.6-0.9,0.9-0.9c0,0,0.6,0,0.3,1.2C69.7,50.1,68.9,50.1,68.9,50.1z M117.5,72.8l-2.3,3.2v0.3h3.2
		C118.9,74.3,117.5,72.8,117.5,72.8z M60,57.9h-0.6l-1.4-0.3c-1.4-0.3-0.9-2.9-0.9-2.9l-1.7,0.6c-0.6-1.2-3.2-4.3-3.2-4.3l-0.6,2.3
		c0.3,0.3,1.7,2.6,2,3.2l-0.9,0.9c0,0-0.3,0.6-0.3,0.9s-0.3,0.6-0.3,0.6L51,59.3h-0.3l-4-3.2v2.3H47c0.3,0.6,0.9,1.7,2.3,2.3
		c1.2,0.6,2.6,0.6,3.2,0.3c0.6,0.3,0.9,0.3,1.2,0.6c1.2,0.6,1.4,0.3,1.4,0.3l1.7-0.6h0.3l0.3-0.3l0.6-1.2c0,0,2.9,0.3,4,0.3
		c1.2-1.7,4.9-4.3,7.5-4.6c2.6,0,6.9,0.6,10.4,4c3.2,3.5,2.3,8.1,2.3,8.1l6.3,2l-2.9-2c-2.3-5.8-7.8-10.9-7.8-10.9s-1.4-0.3-2.3-0.3
		c-0.9-0.3-1.4-0.9-1.4-0.9s-0.3-0.3-0.9-1.2l-0.6-1.2c0,0-0.6-0.6-1.4-1.2s-4-0.9-5.8-1.2c-1.7-0.3-1.7,0-1.7,0
		c4.9,1.2,6.3,1.4,6.6,1.7c0,0,0.3,0.6,0.6,0.9c-4-0.9-7.8-0.3-8.6,0c0.6,0.9,0.6,2,0,2.9C61.7,57,60,57.9,60,57.9z M114.6,78.6
		l0.9,3.7c0,0,0.9-0.9,1.7-2c0.9-1.2,1.2-2.3,1.2-2.3l-3.5,0.3L114.6,78.6z M45.3,52.4L45,55.6h1.7l0.3-2v1.2h0.3V53H47v-1.2
		l2.6,1.4l0.3,0.6l0.6,0.6H51l0.3-0.3v-0.3c-1.7,0-1.7-0.9-1.7-0.9s0.3-2,0.6-2.6c0.3-0.6,1.4-0.3,1.4-0.3l-0.3-0.3h-0.6
		c-0.6-0.3-2.3-1.4-2.9-1.7v-0.3l0.3-0.3v-1.2h0.3c0-0.3,0.3-0.3,0.3-0.6c0.6,0,4.9-0.9,4.9-0.9l-4-0.9v-0.3c-1.2-0.3-2-0.6-2.6-0.9
		c-1.4,1.7-2,4-2,4s-0.3,4-0.3,4.6C44.4,52.1,45.3,52.4,45.3,52.4L45.3,52.4z M112.9,75.1l0.6,0.9l0.3-0.3l2.3-2.9v-0.3
		C114.9,72.5,112.9,75.1,112.9,75.1z M106,70l-1.7-0.6l-4,4.6l2.9,0.9C103.7,72.5,106,70,106,70z M112,76.6
		c-1.4,2.9-1.2,4.9-1.2,4.9l1.4-3.2v-0.6C112.6,77.7,112.3,77.1,112,76.6z M110.6,57.9c0,0-0.6,1.2-0.9,1.4
		c-0.3,0.3-2.3,0.6-3.5,0.9c-1.2,0.6-3.2,1.4-3.7,2c-0.3,0.3-0.3,1.2-0.3,1.4c0,0,0.6,0.3,0.9,0.3l-2.6,2.3l0.6,0.6l6.3,2
		c1.4-1.2,3.5-1.4,3.5-1.4c-1.2-0.6-6-2.6-7.5-3.2c0,0-0.9-0.3-0.9-0.6v-0.9c0,0,3.7-2.9,9.5-2.9l0.9-1.7L110.6,57.9z M114.3,83.2
		l-1.2-3.5h-0.3l-1.7,3.2l0.3,0.3C112.9,83.8,114.3,83.2,114.3,83.2z M70.9,50.4l0.9,0.3c0,0,0.6,0,0.6-0.6V49l-0.9-0.6l-1.2-0.3
		c0.3,0.3,0.3,0.6,0.3,0.6h0.3c0-0.3,0.3-0.3,0.3,0c0,0,0.6,0.3,0.3,1.2C71.7,50.1,71.2,50.4,70.9,50.4z M68.3,66.2
		c-2,3.7-0.6,6.3-0.6,6.3l2.6-3.7v-0.6L68.3,66.2z M49.6,44.1l3.5,0.9c0.3,0,2.3-0.3,2.3-0.3l-5.5-1.4L49.6,44.1z M51.6,43.2
		c4.6,0.6,5.5,1.4,5.5,1.4s1.7-0.3,2.6-0.3c-1.4-1.2-7.8-3.2-7.8-3.2S51.6,42.1,51.6,43.2z M58.5,52.1c-0.9,0.6-1.7,2.3-1.4,3.7
		c0.3,1.4,0.6,1.4,1.4,1.4c-1.4-0.6-1.2-2.9,0-4.3c0.9-1.2,1.7-0.3,1.7-0.3S59.4,51.5,58.5,52.1z M38.1,94.7c-3.7,0-8.1,1.4-5.5,5.5
		c21.3,36.5,43.7,45.2,53.2,49.8c4.3-2,11.2-5.2,19.6-10.9c4.9-3.2,4.3-8.1,3.2-11.2C102.5,112.8,69.4,95.8,38.1,94.7z M158,26.5
		c-8.6-6-29.9-17-72.2-17C71.2,9.6,58.8,11,49,13c2.3,3.7,3.5,8.1,3.5,12.7c0,6.3-2.3,12.1-6,16.4c0.9,0.3,2,0.6,3.5,0.9l0.6-1.4
		c0,0,0.6,0,0.9,0.3c0-1.4,0.9-1.4,0.9-1.4s0-0.3,0.3-0.3c1.4,0.3,5.5,2.3,7.2,3.2c1.7,0.9,1.7,1.2,1.7,1.2s4,0,5.2-0.3
		c1.2,0,3.2-0.9,6-1.7c2.9-0.9,3.5-1.2,4-1.2s5.8,0.3,10.4,0.9c4.6,0.6,8.9,2.3,9.8,2.9l1.4,0.3l0.3-0.9l-2.3-0.9
		c0,0,0.3-1.4,0.3-1.7s0.3-0.6,0.6-0.6s2.9,0.6,3.7,0.9c0.9,0.3,3.7,2.3,4,2.3s0.3,0.3,0.3,0.3c0,0.6-0.6,1.7-0.6,1.7l-0.9-0.3
		l0.9,0.3c0,0,0.9,0.3,1.2,0.6c0.3,0.3,1.2,0.9,2,1.7c0.9,0.6,0.6,1.4,0.6,1.4l2,2V53l4.9,4.9v0.3l-2.3,1.4c0,0,3.2-0.3,5.5,0.9
		c2.3,1.2,2.6,1.7,2.6,2.3c-0.6,0.3-1.4,0.6-1.4,0.6c-1.7,0.6-6,3.5-6,3.5v0.3l2.3,0.6c2.6-2.3,7.2-3.2,10.6-2.6
		c11.8,2.3,19.8,10.1,21.6,16.7c0,0.3,0.3,0.9,0.3,1.2C160,55.3,158.9,35.4,158,26.5L158,26.5z M116.6,68.5c0.3,0.3,0.6,0.3,0.9,0.6
		c1.7,1.2,2.6,1.7,2.9,4.3c0.3,2-0.3,4.9-1.7,7.5c8.1,5.5,19.3,1.2,23.6,5.5C141.3,75.4,125.2,64.5,116.6,68.5z M50.5,54.4l-0.6,0.3
		V57l0.6-0.3V54.4z M133.6,90.1c-6,0-12.1-2-16.4-7.2v0.3c-2.6,3.5-5.5,3.5-6.6,3.5s-4.9-1.7-6.3-3.5c-1.4-1.7-1.4-4.9-1.4-4.9
		l-5.8-2l-7.2-4L88.7,72c-2.3,1.2-5.2,0.3-7.8-1.7c-0.3,1.2-1.7,4-3.5,5.5c-1.7,1.4-5.2,3.5-7.8,3.5c-2.6,0-8.3-2.9-10.1-6.9
		c-1.7-4,0-8.3,0-8.3l-2.9-0.6l-1.2-1.4c0,0-3.5,2.9-7.2,1.7c-3.7-1.2-6.9-4.3-7.8-7.2c-0.6-2.9,0.3-5.5,0.6-5.8
		c-0.6-2-0.6-3.2-0.6-3.2h-0.3v-0.9c-3.7,2.6-8.1,3.7-12.7,3.7c-5.2,0-10.1-1.7-14.1-4.3c0.6,6.3,2.3,13.8,4.6,22.1
		c3.2,11.5,13.5,15.2,29,17.8c34.2,5.5,67,31.6,64.7,47.7c8.6-7.2,17.8-17.8,27-33.6C142.8,94.1,139.3,90.1,133.6,90.1z M42.1,50.4
		l-0.3,3.2h2v-0.3h-0.3V53h-0.3l0.3-0.6l0.3-1.4l-0.3-0.3v-0.6l0.3-0.3l0.3-3.5l-1.4-0.9c0.6-2.3,2-4.3,2-4.3h-0.9c-1.4,1.7-2,4-2,4
		s-0.3,3.7-0.3,4.3C41.6,50.4,42.1,50.4,42.1,50.4z M73.8,69.7l1.4,4.6c2.9-2,3.5-5.2,3.5-5.2L74,69.4L73.8,69.7z M76.3,62.5l-2.3,4
		l0.3,0.3l4.6,0.3C78.9,63.9,76.3,62.5,76.3,62.5z M47.6,53.6l-0.3,1.7h0.3V53.6z M69.4,64.5l2.3,1.7l0.6-0.3l2.6-4
		C71.7,61.6,69.4,64.5,69.4,64.5z M48.2,53.9l-0.3-0.3v2h0.3V53.9z M49,54.4l-0.3,2H49V54.4z M49.6,54.7l-0.3,2h0.3V54.7z
		 M48.5,54.1l-0.3,2h0.3V54.1z"/>
	<path id="XMLID_4_" class="st0" d="M164.9,26L164.9,26l-0.3-3.2l-2.9-2c-12.1-8.3-35.1-18.1-76.2-18.1c-12.4,0-23.9,0.9-34.3,2.8
		C49.9,2.2,46.7,0,43,0H9C4,0,0,4,0,9v34c0,4.3,3.1,8,7.2,8.8c2.5,16.9,8.8,34.3,18.9,51.8c21.3,35.9,44,46.6,54.9,51.5
		c0.9,0.3,1.4,0.6,2,0.9l2.9,1.4l2.9-1.4c0.6-0.3,1.4-0.6,2-0.9c11.2-4.9,33.6-15.5,54.4-51.5C167.8,64.2,165.8,35.4,164.9,26z"/>
	
		<radialGradient id="XMLID_146_" cx="27.2485" cy="221.4003" r="137.401" gradientTransform="matrix(1 0 0 1 0 -196.2)" gradientUnits="userSpaceOnUse">
		<stop  offset="0" style="stop-color:#00AEFF"/>
		<stop  offset="0.131" style="stop-color:#00A5F7"/>
		<stop  offset="0.345" style="stop-color:#008DE0"/>
		<stop  offset="0.616" style="stop-color:#0065BA"/>
		<stop  offset="0.928" style="stop-color:#002F87"/>
		<stop  offset="1" style="stop-color:#00217A"/>
	</radialGradient>
	<path id="XMLID_159_" class="st1" d="M38.1,94.7c-3.7,0-8.1,1.4-5.5,5.5c21.3,36.5,43.7,45.2,53.2,49.8c4.3-2,11.2-5.2,19.6-10.9
		c4.9-3.2,4.3-8.1,3.2-11.2C102.5,112.8,69.4,95.8,38.1,94.7z"/>
	<radialGradient id="XMLID_147_" cx="29.8886" cy="-20.0205" r="175.5103" gradientUnits="userSpaceOnUse">
		<stop  offset="0" style="stop-color:#00AEFF"/>
		<stop  offset="0.131" style="stop-color:#00A5F7"/>
		<stop  offset="0.345" style="stop-color:#008DE0"/>
		<stop  offset="0.616" style="stop-color:#0065BA"/>
		<stop  offset="0.928" style="stop-color:#002F87"/>
		<stop  offset="1" style="stop-color:#00217A"/>
	</radialGradient>
	<path id="XMLID_6_" class="st2" d="M158,26.5L158,26.5c-8.6-6-29.9-17-72.2-17c-13.2,0-24.6,1.2-33.8,2.9V43c0,5-4,9-9,9H14.5
		c0.8,4.9,2.2,10.4,3.8,16.2c3.2,11.5,13.5,15.2,29,17.8c34.2,5.5,67,31.6,64.7,47.7c8.6-7.2,17.8-17.8,27-33.6
		c0.3-0.4,0.5-0.8,0.7-1.2c5-8.6,8.5-16.2,8.5-16C160,55.3,158.9,35.4,158,26.5z"/>
	<radialGradient id="XMLID_148_" cx="21.3" cy="18.002" r="25.4124" gradientUnits="userSpaceOnUse">
		<stop  offset="0" style="stop-color:#FFFFFF"/>
		<stop  offset="0.3082" style="stop-color:#A7A7A7"/>
		<stop  offset="0.4623" style="stop-color:#7A7A7A"/>
		<stop  offset="0.5803" style="stop-color:#636363"/>
		<stop  offset="0.7168" style="stop-color:#4F4F4F"/>
		<stop  offset="0.8559" style="stop-color:#444444"/>
		<stop  offset="1" style="stop-color:#404040"/>
	</radialGradient>
	<path id="XMLID_1_" class="st3" d="M43.4,44.7h-34c-1.1,0-2-0.9-2-2v-34c0-1.1,0.9-2,2-2h34c1.1,0,2,0.9,2,2v34
		C45.4,43.8,44.5,44.7,43.4,44.7z"/>
	<g id="Whirlwind">
		<path id="XMLID_132_" class="st0" d="M132.4,30.1c-0.2,0.1-0.5,0.2-0.7,0.2c-6.1-1.4-12.4-1.5-18.6-1c-5.2,0.4-10.4,1.2-15.4,2.9
			c-0.2,0.1-0.5,0.2-0.7,0.3c0,0.1,0,0.2,0,0.3c0.6,0,1.3-0.1,1.9-0.1c5.3-0.7,10.7-1.5,16-2c2.9-0.3,6-0.1,8.9,0.2
			c2.3,0.3,4.6,1,6.8,1.6c0.2,0.1,0.5,0.1,0.7,0.3c2.2,1.3,2.1,3,0.4,4.4c-2,1.6-4.2,3-6.5,4.1c-3.6,1.7-7.3,3.2-11.1,4.5
			c-5.5,1.9-11.3,3.1-17,3.9c-6.7,1-13.5,1.6-20.3,1.4c-1.9-0.1-3.9-0.7-5.8-1.4c-1.9-0.8-2.7-3-2.3-5c0.4-1.8,1.2-3.3,2.3-4.7
			c2.5-3.2,5.5-5.8,8.8-8.1c5-3.4,10.7-5.3,16.6-6.3c1.3-0.2,2.5-0.5,3.8-0.9c0.4-0.1,0.9-0.4,1.3-0.6c0-0.1,0-0.2-0.1-0.3
			c-1.7,0.1-3.4,0.1-5.1,0.3c-5.3,0.7-10.5,1.9-15.4,4c-7,2.8-13.1,7.1-17.9,12.9c-1.1,1.3-1.9,2.8-2.6,4.3
			c-1.2,2.6-0.1,6.1,2.3,7.8c2.6,1.9,5.5,2.9,8.7,3.5c6.1,1.2,12.3,1,18.4,0.8c7.7-0.3,15.3-1.1,22.8-2.8c5.5-1.2,10.8-2.9,15.9-5.2
			c4-1.9,7.9-4.1,11.3-6.9c1.1-0.9,2-2.2,2.8-3.4c0.9-1.5,0.2-3.9-1.7-5.1c-1.3-0.9-2.9-1.5-4.3-2.3c-0.2-0.1-0.4-0.4-0.6-0.5
			C134.9,30.8,133.7,30.4,132.4,30.1z"/>
		<path id="XMLID_131_" class="st0" d="M128.4,81.2c-7.1,0.6-14-0.3-20.8-2c0-0.1-0.1-0.3-0.1-0.4c0.4-0.2,0.8-0.5,1.2-0.7
			c3-1.1,6.1-2,9.1-3.2c3.8-1.6,7.4-3.6,10.9-5.9c3.7-2.5,7.3-5.3,10.4-8.6c2.2-2.3,4.2-4.8,6.2-7.2c0.4-0.5,0.6-1.1,0.7-1.7
			c0.1-0.8-0.3-1.4-1.1-1.5c-1.1-0.1-2.3-0.2-3.4,0c-4.7,0.7-9.2,2.3-13.6,4c-0.2,0.1-0.4,0.3-0.6,0.7c0.7-0.1,1.4-0.2,2.1-0.3
			c2.8-0.4,5.6-0.8,8.5-1.1c0.8-0.1,1.7,0.2,2.5,0.5c0.3,0.1,0.5,0.7,0.5,1c-0.2,0.7-0.5,1.5-0.9,2c-3,3.6-6.3,6.7-10.1,9.4
			c-5.9,4.2-12.6,6.3-19.8,7.3c-4.2,0.6-8.4,1-12.5,0.8c-3.4-0.2-6.7-0.6-10.1-1.1c-2.6-0.4-5.1-1.1-7.6-1.6c-1-0.2-2-0.2-2.9-0.1
			c-1.1,0.1-1.4,0.8-0.7,1.7c0.9,1,1.9,2,3,2.7c3.1,2.1,6.4,3.9,9.9,5c2.9,0.9,5.8,1.9,8.7,2.5c4.2,0.9,8.5,1.1,12.8,1
			c5.2-0.1,10.3-0.7,15.4-1.8c0.8-0.2,1.6-0.5,2.3-0.8C128.4,81.6,128.4,81.4,128.4,81.2z"/>
		<path id="XMLID_130_" class="st0" d="M132.7,58.1c-2.4,0.9-4.8,1.8-7.2,2.6c-6.7,2.3-13.6,3.7-20.7,4c-4.3,0.2-8.7-0.1-13-0.6
			c-4.4-0.6-8.6-1.7-12.8-2.9c-2.8-0.8-5.5-1.9-8.4-2.6c-1.7-0.4-3.6-0.5-5.4-0.4c-1.5,0.1-1.8,1-0.9,2.2c1.3,1.7,3.1,2.7,4.9,3.7
			c3.7,1.9,7.6,3.2,11.6,4.2c5,1.2,10,1.7,15.1,1.6c4.1-0.1,8.1-0.5,12.1-1.4c5.4-1.1,10.6-2.8,15.6-5.3c2.7-1.3,5.4-2.8,8.1-4.2
			c0.4-0.2,0.8-0.6,1.2-0.9C132.8,58.3,132.7,58.2,132.7,58.1z"/>
		<path id="XMLID_129_" class="st0" d="M89.7,85.9c0.7,0.4,1.3,0.8,2,1.1c4.1,1.6,8.3,3,12.6,3.6c4.7,0.7,9.5,1.3,14.2,2
			c1,0.1,2,0.4,3,0.7c0.3,0.1,0.7,0.6,0.7,0.7c-0.1,0.4-0.5,0.8-0.8,0.9c-2.6,0.7-5.2,1.5-7.8,1.9c-3.5,0.6-7,0.1-10.4-0.2
			c-1-0.1-1.9,0-2.9,0c0,0.2-0.1,0.3-0.1,0.5c1.1,0.4,2.1,0.8,3.2,1c1.5,0.4,3.1,0.6,4.6,0.9c5.5,1,10.9,1.5,16.5,0.6
			c4.7-0.7,9-2.4,12.9-4.9c1-0.7,2-1.5,2.9-2.4c0.9-1,0.6-2-0.7-2.2c-1.8-0.3-3.6-0.6-5.4-0.6c-4.4,0-8.7,0.4-13.1,0.4
			c-3.9,0-7.9-0.3-11.7-0.7c-4.2-0.5-8.3-1.4-12.4-2.2c-2-0.4-4.1-0.8-6.1-1.2c-0.3-0.1-0.7,0-1.1,0C89.8,85.8,89.8,85.9,89.7,85.9z
			"/>
		<path id="XMLID_128_" class="st0" d="M126.3,103c-0.4,0-0.8,0-1.1,0.1c-4.2,1.1-8.5,0.9-12.7-0.1c-2.3-0.6-4.5-1.4-6.8-2
			c-0.8-0.2-1.7-0.1-2.6,0c-0.8,0.1-1.1,0.8-0.8,1.6c0.6,1.8,1.9,3,3.4,4.1c1.5,1.1,3.1,2.1,4.6,3.2c0.5,0.4,1.1,1.1,1.2,1.7
			c0.1,0.8-0.7,1.2-1.4,1.5c-2.7,1.2-3.5,3-1.9,5.7c2.2,3.8,2.6,7.7,2.3,11.9c0,0.5,0.1,1,0.1,1.5c0.1,0,0.2,0,0.3,0.1
			c0.2-0.4,0.5-0.8,0.6-1.2c1-2.8,1.2-5.6,0.8-8.5c-0.1-0.8-0.2-1.6-0.1-2.4c0.1-1.5,1-2.5,2.2-3.2c1-0.6,1.9-1.1,2.8-1.8
			c1.8-1.3,1.5-3.2,0.4-4.8c-0.4-0.6-0.9-1.2-1.3-1.8c-0.7-1.1-0.3-1.7,1-1.9c1.8-0.3,3.6-0.6,5.2-1.2c1.4-0.5,2.6-1.3,3.8-2
			C126.3,103.2,126.3,103.1,126.3,103z"/>
		<path id="XMLID_127_" class="st0" d="M120.8,87.6c1.6-0.2,3.3-0.4,4.9-0.6c2.8-0.5,5.6-1,8.2-2.2c3.5-1.5,6.1-4,7.8-7.4
			c0.6-1.2,1.1-2.6,1.5-3.9c0.8-2.9-0.8-4.7-3.8-4.4c-3,0.3-5.8,1.2-8.5,2.4c-2.7,1.2-5.2,2.6-7.8,4c-0.8,0.4-1.5,1.1-2.3,1.6
			c0,0.1,0.1,0.2,0.1,0.3c1.2-0.4,2.3-0.9,3.5-1.3c2.8-1.1,5.6-2,8.6-2c1,0,2.1,0.3,3.1,0.6c0.9,0.3,1.2,1.2,1,2.2
			c-0.4,2.2-1.9,3.6-3.5,4.8c-2.9,2.3-6.3,3.5-9.8,4.4c-1.1,0.3-2.2,0.7-3.3,1C120.7,87.3,120.8,87.4,120.8,87.6z"/>
		<path id="XMLID_126_" class="st0" d="M115.1,39.5c-1.5,0-3-0.2-4.4-0.1c-5.4,0.3-10.8,0.5-16.2,1c-6.3,0.6-12.4,2.2-18.2,4.8
			c-1,0.4-1.9,1-2.7,1.6C73.3,47,73,47.4,73,47.7c0,0.2,0.4,0.5,0.7,0.6c2.7,0.6,5.2,0.9,8-0.5c3.2-1.6,6.6-2.7,10.1-3.8
			c7.2-2.1,14.6-2.9,22-3.9c0.5-0.1,0.9-0.2,1.3-0.3C115.2,39.8,115.1,39.7,115.1,39.5z"/>
	</g>
</g>
<g id="Random">
	<path id="XMLID_36_" class="st0" d="M209.6,48l-4.6-7.3V48h-7V21h7.8c6,0,9.3,3.2,9.3,8.7c0,2.9-1.4,6.2-4.5,7.5l7.3,10.9H209.6z
		 M205,32.8c3-0.1,3.2-1.1,3.2-2.8c0-1.9-1.2-2.6-3.2-2.7V32.8z"/>
	<path id="XMLID_7_" class="st0" d="M216,47.2h-5.9l-6-10h-0.1v10h-4.8V22.4h6.6c4.9,0,8.3,2.2,8.3,7.5c0,3.2-1.7,6.3-5.1,6.9
		L216,47.2z M204.1,33.8h0.6c2.7,0,4.5-0.8,4.5-3.8c0-3.1-1.9-3.7-4.5-3.7h-0.7V33.8z"/>
	<path id="XMLID_33_" class="st0" d="M235.8,48l-1.9-5h-7.2l-2,5h-7.2l10.4-27h5.1l10.2,27H235.8z M231.9,37l-1.7-4.9l-1.5,4.9
		H231.9z"/>
	<path id="XMLID_10_" class="st0" d="M226,42l-2,5.2h-5.1l9.7-25.5h3.8l9.4,25.5h-5.2l-1.9-5.2H226z M230.2,29L230.2,29l-2.8,9h5.9
		L230.2,29z"/>
	<polygon id="XMLID_25_" class="st0" points="264,48 252,33.3 252,48 245,48 245,21 250.5,21 262,36.2 262,21 269,21 269,48 	"/>
	<path id="XMLID_13_" class="st0" d="M246.5,21.7h3.5l13.1,17.4h0.1V22.4h4.8v25.3h-3.5l-13.1-17.4h-0.1v16.9h-4.8V21.7z"/>
	<path id="XMLID_29_" class="st0" d="M272,48V21h7.7c7.5,0,13,5.7,13,13.5c0,7.6-5.6,13.5-13,13.5H272z M279,42
		c4-0.1,7.1-2.4,7.1-7.2c0-4.8-3.1-7.1-7.1-7.2V42z"/>
	<path id="XMLID_15_" class="st0" d="M272.8,22.4h6.9c7.2,0,12,5.4,12,12.5c0,7-4.9,12.4-12,12.4h-6.9V22.4z M277.6,43h0.8
		c6,0,8.3-3.3,8.3-8.2c0-5.4-2.8-8.2-8.3-8.2h-0.8V43z"/>
	<path id="XMLID_26_" class="st0" d="M307.5,48.9c-7.8,0-13.3-5.8-13.3-14.1c0-8.1,5.6-14,13.3-14s13.3,5.9,13.3,14
		C320.7,43.1,315.3,48.9,307.5,48.9z M307.5,27.5c-4.1,0-6.3,3.6-6.3,7.1c0,3.5,1.6,7.5,6.3,7.5s6.3-4.1,6.3-7.5
		C313.7,31.1,311.5,27.5,307.5,27.5z"/>
	<path id="XMLID_18_" class="st0" d="M307.5,47.9c-7.6,0-12.3-5.8-12.3-13.1c0-7.4,4.9-13,12.3-13s12.3,5.7,12.3,13
		C319.7,42.1,315,47.9,307.5,47.9z M307.5,26.5c-4.6,0-7.3,4.1-7.3,8.1c0,3.8,1.9,8.5,7.3,8.5s7.3-4.7,7.3-8.5
		C314.7,30.6,312,26.5,307.5,26.5z"/>
	<polygon id="XMLID_24_" class="st0" points="334.9,49 330.5,36 328.7,48 321.8,48 326.3,21 331.3,21 336.7,35.5 341.9,21 347,21 
		351,48 344.1,48 342.5,36 338,49 	"/>
	<path id="XMLID_21_" class="st0" d="M343,31.8L343,31.8l-5.7,15.7h-1.7l-5.4-15.7h-0.1l-2.2,15.4H323l4.2-25.5h3.4l6.1,16.4
		l5.9-16.4h3.5l3.7,25.5h-4.9L343,31.8z"/>
</g>
</svg>
