<?xml version="1.0" encoding="utf-8"?>
<!-- Generator: Adobe Illustrator 19.0.0, SVG Export Plug-In . SVG Version: 6.00 Build 0)  -->
<svg version="1.1" id="Layer_1" xmlns="http://www.w3.org/2000/svg" xmlns:xlink="http://www.w3.org/1999/xlink" x="0px" y="0px"
	 viewBox="-186 444 585.7 74" style="enable-background:new -186 444 585.7 74;" xml:space="preserve">
<style type="text/css">
	.st0{fill:url(#XMLID_5_);}
	.st1{fill:#FFFFFF;}
</style>
<g id="XMLID_4_">
	<g id="XMLID_1_">
		
			<linearGradient id="XMLID_5_" gradientUnits="userSpaceOnUse" x1="106.9" y1="446" x2="106.9" y2="520" gradientTransform="matrix(1 0 0 -1 0 964)">
			<stop  offset="0" style="stop-color:#72CEF6"/>
			<stop  offset="4.864830e-002" style="stop-color:#69C3EC"/>
			<stop  offset="0.2653" style="stop-color:#4597C5"/>
			<stop  offset="0.4746" style="stop-color:#2975A5"/>
			<stop  offset="0.6718" style="stop-color:#155C8F"/>
			<stop  offset="0.8521" style="stop-color:#094D82"/>
			<stop  offset="1" style="stop-color:#05487D;stop-opacity:0.2"/>
		</linearGradient>
		<path id="XMLID_58_" class="st0" d="M367.2,512.6c-1.5,2.9-5.4,5.4-8.7,5.4h-503.2c-3.3,0-7.2-2.4-8.7-5.4l-32-63.2
			c-1.5-3,0-5.4,3.3-5.4h578c3.3,0,4.8,2.4,3.3,5.4L367.2,512.6z"/>
	</g>
	<g id="XMLID_2_">
		<path id="XMLID_20_" class="st1" d="M-25.9,472.9c0-2.5,1.9-4.5,4.3-4.5h7.8c2.4,0,4.3,2.1,4.3,4.5v3.2h-2.6v-2.7
			c0-1.3-1-2.4-2.2-2.4H-21c-1.2,0-2.2,1.1-2.2,2.4v14.7c0,1.3,1,2.4,2.2,2.4h6.7c1.2,0,2.2-1.1,2.2-2.4V484h-5.1v-2.3h7.7v6.9
			c0,2.5-1.9,4.5-4.3,4.5h-7.8c-2.3,0-4.3-2.1-4.3-4.5L-25.9,472.9L-25.9,472.9z"/>
		<path id="XMLID_22_" class="st1" d="M-4.4,468.8H9.7v2.5H-1.7v8.1h8.8v2.4h-8.8v8.2H10v2.7H-4.3v-23.9H-4.4z"/>
		<path id="XMLID_24_" class="st1" d="M14.2,468.8h2l12.6,13.5v-13.5h2.7v23.9h-2.7V486l-11.9-12.9v19.6h-2.7L14.2,468.8L14.2,468.8
			z"/>
		<path id="XMLID_26_" class="st1" d="M36.9,468.8H51v2.5H39.6v8.1h8.8v2.4h-8.8v8.2h11.7v2.7H37v-23.9H36.9z"/>
		<path id="XMLID_28_" class="st1" d="M55.6,468.8h10.3c2.4,0,4.3,2.1,4.3,4.5v5.7c0,2.3-1.6,4.2-3.7,4.4h-0.6l6.1,9.3h-3.1l-6-9.2
			h-4.7v9.2h-2.7v-23.9H55.6z M65.1,481.1c1.4,0,2.4-1.2,2.4-2.6v-4.6c0-1.4-1.1-2.6-2.4-2.6h-6.9v9.9h6.9V481.1z"/>
		<path id="XMLID_31_" class="st1" d="M81.9,468.8h2.5l8.8,23.9h-2.7l-2.6-7.1h-9.4l-2.6,7.1h-2.7L81.9,468.8z M87,483.2l-3.9-10.8
			l-3.9,10.8H87z"/>
		<path id="XMLID_34_" class="st1" d="M91.6,468.8h17.9v2.5h-7.6v21.4h-2.6v-21.4h-7.6L91.6,468.8L91.6,468.8z"/>
		<path id="XMLID_36_" class="st1" d="M112.6,468.8h14.1v2.5h-11.4v8.1h8.8v2.4h-8.8v8.2H127v2.7h-14.3v-23.9H112.6z"/>
		<path id="XMLID_38_" class="st1" d="M138.2,468.8h1.9l8.5,19.3l8.6-19.3h1.9v23.9h-2.5v-16.3l-7.2,16.3H148l-7.2-16.3v16.3h-2.6
			L138.2,468.8L138.2,468.8z"/>
		<path id="XMLID_40_" class="st1" d="M171.1,468.8h2.5l8.8,23.9h-2.7l-2.6-7.1h-9.4l-2.6,7.1h-2.7L171.1,468.8z M176.2,483.2
			l-3.9-10.8l-3.9,10.8H176.2z"/>
		<path id="XMLID_43_" class="st1" d="M180.8,468.8h17.9v2.5H191v21.4h-2.6v-21.4h-7.6V468.8z"/>
		<path id="XMLID_45_" class="st1" d="M201.4,472.9c0-2.5,1.9-4.5,4.2-4.5h7.9c2.4,0,4.3,2.1,4.3,4.5v3.2h-2.6v-2.7
			c0-1.3-1-2.4-2.2-2.4h-6.7c-1.3,0-2.2,1.1-2.2,2.4v14.7c0,1.3,1,2.4,2.2,2.4h6.7c1.3,0,2.2-1.1,2.2-2.4v-2.6h2.6v3.1
			c0,2.5-1.9,4.5-4.3,4.5h-7.9c-2.3,0-4.2-2.1-4.2-4.5V472.9z"/>
		<path id="XMLID_47_" class="st1" d="M222.6,468.8h2.7v10.5h11.3v-10.5h2.7v23.9h-2.7v-10.8h-11.3v10.8h-2.7V468.8z"/>
	</g>
</g>
</svg>
