<?xml version="1.0" encoding="utf-8"?>
<!-- Generator: Adobe Illustrator 19.0.0, SVG Export Plug-In . SVG Version: 6.00 Build 0)  -->
<svg version="1.1" id="Layer_1" xmlns="http://www.w3.org/2000/svg" xmlns:xlink="http://www.w3.org/1999/xlink" x="0px" y="0px"
	 viewBox="0 0 232.8 232.8" style="enable-background:new 0 0 232.8 232.8;" xml:space="preserve">
<style type="text/css">
	.st0{display:none;}
	.st1{display:inline;fill:#FFFFFF;}
	.st2{fill:#FFFFFF;}
</style>
<g id="XMLID_1_" class="st0">
	<path id="XMLID_32_" class="st1" d="M232.8,116.3c0,64.3-52.4,116.6-116.6,116.5C52.1,232.6-0.1,180.3,0,116.5
		C0.1,52.1,52.3-0.1,116.6,0C180.6,0.1,232.8,52.3,232.8,116.3z M214.1,116.4c-0.1-54-43.7-97.5-97.8-97.7
		c-53.6-0.1-97.7,43.9-97.6,97.6c0.1,54.1,43.6,97.7,97.7,97.8C170.2,214.2,214.1,170.2,214.1,116.4z"/>
	<path id="XMLID_28_" class="st1" d="M166.1,174.5c-0.4-6.2-0.3-13.1-1.5-19.7c-2.4-13.6-10.2-23.4-22.8-29.3
		c-15.4-7.2-31.8-7.9-48.7-6.7c0,8.4,0,16.6,0,25.5c-13.5-14.3-26.4-28-39.5-41.9c13.1-13.8,26-27.5,39.4-41.7
		c0.1,1.4,0.1,2.3,0.1,3.2c0,6.6,0.1,13.2,0,19.7c0,2,0.7,2.5,2.5,2.8c18.4,3.3,35.8,9.2,51,20.2c12.1,8.7,20.7,19.9,23.5,34.9
		C172.2,153.2,170,164.4,166.1,174.5z"/>
</g>
<g id="XMLID_29_">
	<path id="XMLID_63_" class="st2" d="M0,116.2C-0.2,52,51.7,0.1,116.3,0c64.4-0.1,116.4,51.6,116.5,116
		c0.1,64-52.1,116.3-116.3,116.5C52.5,232.6,0.2,180.4,0,116.2z M12.1,116.1c0,57.5,47.2,104.5,104.5,104.3
		c57.4-0.2,103.7-46.4,104.1-104.1C221.1,59,174.1,11.8,116.5,11.7C58.9,11.7,12,58.5,12.1,116.1z"/>
	<path id="XMLID_59_" class="st2" d="M91.4,123.6c5.2,4.9,10.4,9.8,15.6,14.7c1.2,1.2,2.5,2.4,3.5,3.7c2.4,3,2.5,6.6-0.5,8.5
		c-1.9,1.2-6.4,1.1-7.9-0.4c-10.2-9.5-20-19.5-29.8-29.6c-2.8-2.8-2.6-6.3,0.2-9.2c9.7-9.8,19.5-19.6,29.3-29.3
		c2.6-2.6,5.9-3.1,8.6-0.3c2.8,2.9,2.4,6.3-0.4,9.1c-6,6-12.1,11.9-17.8,19.4c1.7,0,3.4,0,5.1,0c18.2,0,36.3,0,54.5,0
		c4.2,0,6.6,1.9,6.5,6c-0.1,3.8-2.4,5.8-6.3,5.7c-1.5,0-3,0-4.5,0c-16.5,0-32.9,0-49.4,0c-1.9,0-3.7,0-5.6,0
		C92.2,122.5,91.8,123,91.4,123.6z"/>
</g>
</svg>
